<?xml version="1.0" standalone="no"?>
<!DOCTYPE svg PUBLIC "-//W3C//DTD SVG 20010904//EN"
 "http://www.w3.org/TR/2001/REC-SVG-20010904/DTD/svg10.dtd">
<svg version="1.0" xmlns="http://www.w3.org/2000/svg"
 width="512.000000pt" height="512.000000pt" viewBox="0 0 512.000000 512.000000"
 preserveAspectRatio="xMidYMid meet">

<g transform="translate(0.000000,512.000000) scale(0.100000,-0.100000)"
fill="#f5f5f7" stroke="none">
<path d="M2435 5113 c-207 -33 -387 -123 -531 -267 -171 -171 -260 -376 -272
-623 l-5 -113 -503 0 -502 0 -63 -33 c-74 -38 -129 -103 -153 -181 -12 -39
-38 -463 -111 -1781 -53 -952 -96 -1764 -97 -1805 -2 -124 55 -219 167 -278
l50 -27 2145 0 2145 0 50 27 c114 60 164 146 165 278 0 47 -43 861 -95 1810
-73 1314 -99 1737 -111 1776 -24 78 -79 143 -153 181 l-63 33 -502 0 -503 0
-5 113 c-20 419 -297 763 -698 867 -84 22 -283 35 -355 23z m294 -229 c200
-49 380 -194 470 -379 51 -104 71 -190 71 -303 l0 -92 -710 0 -710 0 0 92 c0
50 7 121 16 157 60 247 263 455 509 521 91 24 263 26 354 4z m-1099 -1094 c0
-92 -2 -110 -15 -110 -28 0 -97 -41 -145 -86 -174 -163 -124 -459 95 -561 52
-24 72 -28 150 -28 108 0 159 20 233 89 163 153 144 412 -41 540 l-57 40 0
113 0 113 710 0 710 0 0 -113 0 -113 -57 -40 c-184 -127 -205 -387 -43 -538
67 -63 127 -88 220 -94 170 -9 312 97 355 266 28 109 -2 224 -81 312 -40 44
-127 100 -156 100 -16 0 -18 12 -18 110 l0 110 480 0 480 0 31 -28 32 -28 99
-1780 c110 -1961 107 -1817 38 -1841 -51 -17 -4129 -17 -4180 0 -69 24 -72
-119 38 1837 75 1347 102 1780 112 1797 8 12 23 26 35 32 12 6 202 10 498 10
l477 1 0 -110z m169 -345 c81 -69 52 -198 -51 -226 -135 -36 -229 146 -120
231 39 31 131 28 171 -5z m1693 5 c54 -42 62 -137 16 -187 -56 -62 -136 -65
-193 -8 -55 55 -52 141 6 189 40 34 132 37 171 6z"/>
</g>
</svg>
