<?xml version="1.0" standalone="no"?>
<!DOCTYPE svg PUBLIC "-//W3C//DTD SVG 20010904//EN"
 "http://www.w3.org/TR/2001/REC-SVG-20010904/DTD/svg10.dtd">
<svg version="1.0" xmlns="http://www.w3.org/2000/svg"
 width="3840.000000pt" height="2160.000000pt" viewBox="0 0 3840.000000 2160.000000"
 preserveAspectRatio="xMidYMid meet">

<g transform="translate(0.000000,2160.000000) scale(0.100000,-0.100000)"
fill="#f5f5f7" stroke="none">
<path d="M22870 20194 c-52 -8 -131 -18 -175 -23 -87 -10 -133 -20 -270 -59
-49 -14 -115 -30 -145 -37 -72 -16 -219 -67 -350 -121 -58 -24 -109 -44 -114
-44 -36 0 -558 -263 -640 -322 -21 -15 -43 -28 -47 -28 -11 0 -103 -62 -107
-72 -2 -4 -10 -8 -17 -8 -7 0 -40 -20 -73 -45 -33 -25 -63 -45 -67 -45 -4 0
-30 -19 -58 -43 -29 -24 -71 -55 -94 -71 -23 -15 -44 -34 -47 -42 -3 -8 -12
-14 -19 -14 -8 0 -34 -20 -58 -45 -24 -25 -48 -45 -53 -45 -4 0 -29 -21 -55
-47 -25 -27 -69 -69 -97 -94 -67 -60 -377 -408 -398 -447 -5 -10 -29 -40 -52
-69 -24 -28 -44 -55 -44 -59 0 -4 -20 -32 -45 -62 -25 -30 -45 -58 -45 -63 0
-5 -18 -32 -40 -61 -22 -29 -40 -57 -40 -61 0 -4 -20 -37 -45 -74 -25 -36 -45
-69 -45 -74 0 -6 -20 -40 -45 -78 -25 -38 -45 -73 -45 -79 0 -5 -18 -42 -40
-81 -22 -39 -40 -74 -40 -79 0 -5 -20 -49 -45 -98 -25 -48 -45 -93 -45 -100 0
-7 -13 -41 -30 -76 -40 -87 -51 -117 -61 -158 -4 -19 -22 -73 -39 -120 -17
-47 -35 -105 -40 -130 -5 -25 -25 -106 -45 -180 -20 -74 -40 -171 -45 -215 -5
-44 -15 -132 -24 -195 -24 -185 -30 -379 -16 -555 6 -88 16 -164 21 -170 6 -6
100 -10 242 -9 205 0 251 3 392 27 88 15 178 30 200 33 22 4 86 22 143 40 57
19 111 34 121 34 17 0 49 12 146 55 17 7 53 21 80 30 28 9 86 35 130 57 44 22
94 47 110 55 166 84 335 183 376 222 12 11 28 21 34 21 7 0 23 9 36 21 13 11
59 45 101 76 43 31 78 60 78 65 0 4 6 8 13 8 7 0 32 17 55 38 23 20 68 60 102
87 33 28 81 70 108 95 117 110 249 240 277 271 17 19 74 82 128 141 53 58 97
110 97 115 0 4 18 26 40 47 22 22 40 45 40 52 0 7 6 17 13 21 8 4 40 44 73 88
32 44 66 89 76 99 10 11 18 25 18 30 0 6 13 26 29 45 16 19 35 46 43 60 7 14
30 50 51 78 20 29 42 64 47 78 6 15 21 41 34 58 24 32 99 169 143 262 62 128
85 177 127 273 25 57 46 109 46 115 0 7 17 55 37 107 20 52 39 113 44 135 4
22 25 108 47 190 37 136 58 252 94 510 15 101 18 676 5 738 -8 37 -8 37 -55
36 -26 -1 -90 -7 -142 -15z"/>
<path d="M22420 15679 c-41 -4 -127 -13 -190 -18 -63 -5 -180 -23 -260 -40
-80 -16 -172 -35 -205 -41 -33 -7 -118 -28 -190 -47 -71 -20 -148 -38 -170
-42 -45 -7 -246 -71 -433 -137 -68 -24 -129 -44 -135 -44 -7 0 -57 -17 -112
-39 -55 -21 -125 -47 -155 -56 -30 -10 -59 -21 -65 -25 -5 -4 -41 -17 -80 -30
-38 -12 -122 -42 -186 -66 -63 -24 -121 -44 -128 -44 -7 0 -63 -17 -124 -39
-209 -73 -392 -131 -410 -131 -10 0 -51 -11 -92 -25 -111 -37 -263 -65 -320
-59 -78 8 -197 32 -290 59 -47 14 -93 25 -102 25 -20 0 -263 77 -416 131 -59
22 -114 39 -122 39 -8 0 -64 20 -125 45 -61 25 -116 45 -124 45 -7 0 -62 20
-122 45 -59 25 -114 45 -120 45 -7 0 -56 18 -110 40 -54 22 -106 40 -115 40
-9 0 -70 20 -136 45 -65 25 -125 45 -133 45 -8 0 -68 18 -135 39 -66 22 -149
46 -185 54 -36 8 -121 28 -190 45 -140 35 -293 63 -480 89 -310 43 -834 4
-1260 -94 -85 -19 -175 -39 -200 -44 -77 -15 -427 -130 -455 -150 -5 -3 -46
-19 -90 -34 -44 -15 -84 -31 -90 -35 -5 -5 -41 -21 -80 -36 -38 -15 -96 -43
-128 -61 -33 -18 -65 -33 -72 -33 -7 0 -30 -12 -51 -26 -21 -15 -70 -43 -109
-62 -38 -19 -72 -38 -75 -41 -11 -14 -60 -41 -74 -41 -8 0 -16 -3 -18 -7 -5
-11 -113 -83 -124 -83 -6 0 -19 -8 -30 -18 -10 -10 -55 -42 -99 -71 -44 -30
-83 -58 -86 -63 -3 -5 -19 -16 -34 -24 -15 -8 -44 -28 -64 -45 -20 -17 -94
-78 -166 -137 -141 -116 -415 -384 -535 -524 -41 -48 -94 -109 -117 -137 -24
-27 -43 -53 -43 -58 0 -5 -15 -24 -34 -42 -19 -19 -40 -47 -47 -62 -6 -16 -15
-29 -19 -29 -4 0 -34 -39 -66 -87 -32 -49 -66 -97 -76 -107 -10 -11 -18 -24
-18 -30 0 -6 -18 -36 -40 -67 -22 -32 -40 -60 -40 -64 0 -4 -17 -33 -38 -64
-21 -31 -50 -79 -64 -107 -15 -28 -38 -68 -52 -89 -14 -21 -26 -45 -26 -53 0
-9 -6 -23 -14 -31 -7 -9 -24 -38 -38 -66 -79 -159 -118 -241 -118 -251 0 -6
-14 -37 -31 -70 -16 -32 -39 -86 -50 -119 -12 -33 -27 -73 -34 -90 -40 -89
-55 -129 -55 -144 0 -9 -18 -63 -40 -121 -22 -58 -43 -121 -46 -140 -3 -19
-19 -78 -34 -130 -30 -98 -42 -147 -84 -336 -28 -124 -49 -241 -66 -359 -6
-44 -20 -136 -30 -205 -50 -333 -54 -413 -53 -1045 0 -647 4 -722 67 -1185 14
-96 27 -203 31 -238 3 -34 20 -131 36 -215 17 -83 34 -181 39 -217 10 -76 73
-355 135 -595 24 -93 50 -197 58 -230 21 -84 60 -217 112 -376 25 -75 45 -143
45 -150 0 -8 20 -68 45 -134 25 -66 45 -126 45 -134 0 -8 17 -60 39 -115 21
-56 45 -121 54 -146 18 -52 61 -161 123 -310 24 -58 44 -110 44 -117 0 -11 35
-88 66 -145 8 -14 14 -35 14 -45 0 -10 4 -23 9 -28 4 -6 27 -53 50 -105 89
-201 395 -820 419 -846 5 -6 25 -42 44 -80 19 -38 47 -87 62 -108 14 -21 26
-43 26 -47 0 -5 20 -38 45 -75 25 -36 45 -69 45 -74 0 -5 19 -39 42 -74 63
-96 100 -154 128 -201 14 -23 52 -82 85 -130 33 -48 69 -102 80 -119 11 -18
34 -50 50 -72 17 -21 48 -65 70 -97 21 -31 42 -57 46 -57 4 0 12 -12 17 -27 6
-16 26 -46 46 -67 20 -22 36 -43 36 -48 0 -5 19 -33 43 -63 95 -122 123 -159
138 -184 9 -14 30 -41 48 -60 17 -18 31 -39 31 -47 0 -7 6 -17 14 -21 12 -8
97 -113 173 -215 19 -27 39 -48 44 -48 4 0 14 -11 22 -25 7 -14 30 -44 50 -68
21 -23 99 -112 174 -197 181 -206 238 -265 429 -438 186 -170 242 -218 281
-242 15 -9 39 -29 52 -44 14 -14 28 -26 33 -26 4 0 34 -20 67 -45 32 -25 62
-45 66 -45 4 0 32 -17 63 -38 69 -47 218 -132 231 -132 5 0 39 -16 76 -35 77
-41 379 -145 421 -145 16 0 61 -7 99 -15 113 -25 387 -30 535 -10 69 9 158 21
198 25 89 11 338 75 527 136 77 25 145 45 150 44 6 0 55 18 109 40 54 22 103
40 111 40 12 0 50 16 163 66 29 13 58 24 65 24 7 0 59 21 117 45 58 25 112 45
121 45 15 0 56 14 114 40 33 14 88 32 125 40 19 4 95 26 169 49 74 23 144 41
156 41 12 0 57 9 101 20 477 122 1169 124 1643 4 51 -13 103 -24 116 -24 12 0
48 -8 81 -19 32 -10 100 -31 149 -45 82 -24 119 -36 280 -91 28 -10 97 -37
155 -61 58 -24 110 -44 115 -44 6 0 57 -19 115 -43 96 -40 200 -78 305 -113
173 -56 317 -99 355 -105 25 -4 115 -23 200 -43 179 -42 494 -72 640 -61 256
18 311 26 446 64 76 21 152 42 169 45 28 7 74 26 161 67 22 10 45 19 52 19 16
0 241 118 279 146 17 13 38 24 45 24 8 0 24 9 35 20 12 10 46 35 77 55 31 20
71 48 89 64 17 15 37 30 44 32 13 4 76 56 158 132 29 26 55 47 58 47 4 0 23
18 43 40 20 22 42 40 49 40 7 0 15 4 17 9 2 5 62 70 133 143 72 73 155 162
185 198 30 35 67 75 83 89 15 14 27 30 27 36 0 5 20 30 45 54 25 24 45 48 45
53 0 5 18 28 40 50 22 23 40 45 40 49 0 3 16 24 36 45 20 22 46 55 59 74 13
19 37 50 54 68 17 18 31 38 31 43 0 5 17 28 38 52 20 23 42 49 47 58 19 30 80
112 120 162 22 27 46 61 54 76 8 14 29 44 48 65 18 22 33 46 33 53 0 7 3 13 8
13 4 0 18 17 32 37 14 20 30 41 35 47 6 6 17 24 25 39 8 16 24 39 37 51 12 13
28 34 36 47 7 13 44 71 82 128 39 57 77 115 85 130 9 14 34 53 56 86 23 33 44
69 48 81 3 11 14 29 24 40 16 17 59 89 137 228 58 104 68 120 81 134 8 7 14
22 14 31 0 10 9 29 19 43 11 13 35 55 54 94 85 170 168 329 177 338 6 6 10 16
10 24 0 13 31 82 127 277 24 50 43 96 43 103 0 7 15 43 34 80 19 37 43 95 54
127 11 33 34 91 51 128 17 38 31 76 31 84 0 8 6 29 14 46 37 81 76 180 76 193
0 7 20 63 45 124 25 61 45 119 45 129 0 14 -19 28 -66 50 -36 17 -70 31 -76
31 -5 0 -44 20 -87 45 -43 25 -83 45 -89 45 -6 0 -44 19 -84 43 -40 23 -85 49
-100 57 -75 42 -175 105 -193 120 -11 10 -34 26 -51 37 -46 26 -193 132 -212
153 -9 9 -23 19 -29 21 -12 4 -39 26 -157 132 -29 26 -56 47 -60 47 -11 0
-446 437 -446 447 0 5 -20 29 -45 54 -24 24 -45 49 -45 55 0 5 -15 25 -34 43
-19 19 -40 47 -47 62 -6 16 -15 29 -19 29 -5 0 -29 30 -53 68 -25 37 -59 84
-76 106 -17 21 -31 44 -31 51 0 6 -10 24 -23 38 -12 15 -31 43 -42 64 -10 21
-33 61 -50 88 -53 87 -205 403 -223 465 -6 19 -25 69 -42 110 -17 41 -39 104
-50 140 -10 36 -32 110 -49 166 -17 55 -38 136 -46 180 -8 43 -26 135 -40 204
-14 69 -30 177 -35 240 -6 63 -14 162 -20 220 -15 163 -12 553 5 775 11 132
29 261 52 380 20 99 39 203 43 230 5 28 27 106 49 174 23 69 41 131 41 138 0
13 31 93 69 178 10 22 21 53 25 69 9 37 170 365 212 431 17 28 43 70 57 95 14
25 35 56 46 69 12 13 21 28 21 34 0 19 197 280 307 405 105 120 239 258 338
347 49 44 112 101 140 128 29 26 56 47 61 47 5 0 25 16 44 35 19 19 37 35 41
35 4 0 14 6 21 13 28 26 105 84 141 106 20 12 37 26 37 31 0 4 20 18 45 30 25
12 45 25 45 29 0 3 18 17 40 31 22 14 40 28 40 31 0 4 11 10 24 13 14 3 38 17
54 31 17 14 46 32 65 40 47 19 52 30 30 64 -16 26 -128 172 -160 210 -7 9 -34
41 -59 71 -135 163 -289 319 -483 490 -73 64 -82 71 -164 133 -45 33 -83 65
-85 69 -2 4 -8 8 -14 8 -5 0 -35 20 -67 45 -31 25 -60 45 -64 45 -3 0 -35 20
-70 45 -36 25 -69 45 -75 45 -5 0 -22 10 -37 22 -53 41 -335 189 -475 248
-183 78 -393 160 -408 160 -6 0 -64 18 -129 41 -65 22 -138 44 -163 48 -25 5
-110 25 -190 45 -401 99 -869 158 -1240 155 -102 -1 -219 -5 -260 -10z"/>
</g>
</svg>
